<svg id="visual" viewBox="0 0 900 150" width="900" height="150" xmlns="http://www.w3.org/2000/svg" xmlns:xlink="http://www.w3.org/1999/xlink" version="1.1"><rect x="0" y="0" width="900" height="150" fill="#2d2d2e"></rect><path d="M0 139L25 138.8C50 138.7 100 138.3 150 137C200 135.7 250 133.3 300 135.2C350 137 400 143 450 141.7C500 140.3 550 131.7 600 126.3C650 121 700 119 750 121.3C800 123.7 850 130.3 875 133.7L900 137L900 0L875 0C850 0 800 0 750 0C700 0 650 0 600 0C550 0 500 0 450 0C400 0 350 0 300 0C250 0 200 0 150 0C100 0 50 0 25 0L0 0Z" fill="#f53b57"></path><path d="M0 108L25 112.7C50 117.3 100 126.7 150 125.8C200 125 250 114 300 110.3C350 106.7 400 110.3 450 113.8C500 117.3 550 120.7 600 123.2C650 125.7 700 127.3 750 126.8C800 126.3 850 123.7 875 122.3L900 121L900 0L875 0C850 0 800 0 750 0C700 0 650 0 600 0C550 0 500 0 450 0C400 0 350 0 300 0C250 0 200 0 150 0C100 0 50 0 25 0L0 0Z" fill="#e23662"></path><path d="M0 126L25 122C50 118 100 110 150 103.3C200 96.7 250 91.3 300 91C350 90.7 400 95.3 450 97C500 98.7 550 97.3 600 97C650 96.7 700 97.3 750 100.8C800 104.3 850 110.7 875 113.8L900 117L900 0L875 0C850 0 800 0 750 0C700 0 650 0 600 0C550 0 500 0 450 0C400 0 350 0 300 0C250 0 200 0 150 0C100 0 50 0 25 0L0 0Z" fill="#cc3569"></path><path d="M0 81L25 83.8C50 86.7 100 92.3 150 94.7C200 97 250 96 300 94C350 92 400 89 450 86.5C500 84 550 82 600 82.5C650 83 700 86 750 85.5C800 85 850 81 875 79L900 77L900 0L875 0C850 0 800 0 750 0C700 0 650 0 600 0C550 0 500 0 450 0C400 0 350 0 300 0C250 0 200 0 150 0C100 0 50 0 25 0L0 0Z" fill="#b5366d"></path><path d="M0 78L25 80.7C50 83.3 100 88.7 150 90.5C200 92.3 250 90.7 300 88.7C350 86.7 400 84.3 450 85.5C500 86.7 550 91.3 600 90.7C650 90 700 84 750 84.7C800 85.3 850 92.7 875 96.3L900 100L900 0L875 0C850 0 800 0 750 0C700 0 650 0 600 0C550 0 500 0 450 0C400 0 350 0 300 0C250 0 200 0 150 0C100 0 50 0 25 0L0 0Z" fill="#9e376e"></path><path d="M0 70L25 73.3C50 76.7 100 83.3 150 85.7C200 88 250 86 300 84C350 82 400 80 450 77.5C500 75 550 72 600 68.8C650 65.7 700 62.3 750 60.8C800 59.3 850 59.7 875 59.8L900 60L900 0L875 0C850 0 800 0 750 0C700 0 650 0 600 0C550 0 500 0 450 0C400 0 350 0 300 0C250 0 200 0 150 0C100 0 50 0 25 0L0 0Z" fill="#86386c"></path><path d="M0 54L25 53C50 52 100 50 150 54.2C200 58.3 250 68.7 300 71.5C350 74.3 400 69.7 450 67.7C500 65.7 550 66.3 600 67C650 67.7 700 68.3 750 67.2C800 66 850 63 875 61.5L900 60L900 0L875 0C850 0 800 0 750 0C700 0 650 0 600 0C550 0 500 0 450 0C400 0 350 0 300 0C250 0 200 0 150 0C100 0 50 0 25 0L0 0Z" fill="#6f3866"></path><path d="M0 51L25 50C50 49 100 47 150 45.2C200 43.3 250 41.7 300 44.8C350 48 400 56 450 58.5C500 61 550 58 600 58.3C650 58.7 700 62.3 750 64.5C800 66.7 850 67.3 875 67.7L900 68L900 0L875 0C850 0 800 0 750 0C700 0 650 0 600 0C550 0 500 0 450 0C400 0 350 0 300 0C250 0 200 0 150 0C100 0 50 0 25 0L0 0Z" fill="#59355c"></path><path d="M0 51L25 47.2C50 43.3 100 35.7 150 32.8C200 30 250 32 300 36.3C350 40.7 400 47.3 450 49.2C500 51 550 48 600 45.7C650 43.3 700 41.7 750 42C800 42.3 850 44.7 875 45.8L900 47L900 0L875 0C850 0 800 0 750 0C700 0 650 0 600 0C550 0 500 0 450 0C400 0 350 0 300 0C250 0 200 0 150 0C100 0 50 0 25 0L0 0Z" fill="#463250"></path><path d="M0 22L25 25.7C50 29.3 100 36.7 150 36.5C200 36.3 250 28.7 300 27.5C350 26.3 400 31.7 450 34.8C500 38 550 39 600 37.8C650 36.7 700 33.3 750 33.7C800 34 850 38 875 40L900 42L900 0L875 0C850 0 800 0 750 0C700 0 650 0 600 0C550 0 500 0 450 0C400 0 350 0 300 0C250 0 200 0 150 0C100 0 50 0 25 0L0 0Z" fill="#362d42"></path><path d="M0 22L25 20.3C50 18.7 100 15.3 150 15.7C200 16 250 20 300 20.3C350 20.7 400 17.3 450 17.5C500 17.7 550 21.3 600 23.7C650 26 700 27 750 25.5C800 24 850 20 875 18L900 16L900 0L875 0C850 0 800 0 750 0C700 0 650 0 600 0C550 0 500 0 450 0C400 0 350 0 300 0C250 0 200 0 150 0C100 0 50 0 25 0L0 0Z" fill="#292732"></path><path d="M0 19L25 18.3C50 17.7 100 16.3 150 14.7C200 13 250 11 300 10C350 9 400 9 450 9.5C500 10 550 11 600 10.3C650 9.7 700 7.3 750 6.2C800 5 850 5 875 5L900 5L900 0L875 0C850 0 800 0 750 0C700 0 650 0 600 0C550 0 500 0 450 0C400 0 350 0 300 0C250 0 200 0 150 0C100 0 50 0 25 0L0 0Z" fill="#202022"></path></svg>