<svg id="visual" viewBox="0 0 900 150" width="900" height="150" xmlns="http://www.w3.org/2000/svg" xmlns:xlink="http://www.w3.org/1999/xlink" version="1.1"><rect x="0" y="0" width="900" height="150" fill="#151515"></rect><path d="M0 0L25 6.8C50 13.7 100 27.3 150 28.2C200 29 250 17 300 12.8C350 8.7 400 12.3 450 16.5C500 20.7 550 25.3 600 26C650 26.7 700 23.3 750 20.2C800 17 850 14 875 12.5L900 11L900 151L875 151C850 151 800 151 750 151C700 151 650 151 600 151C550 151 500 151 450 151C400 151 350 151 300 151C250 151 200 151 150 151C100 151 50 151 25 151L0 151Z" fill="#f53b57"></path><path d="M0 57L25 53.8C50 50.7 100 44.3 150 39.3C200 34.3 250 30.7 300 30C350 29.3 400 31.7 450 34C500 36.3 550 38.7 600 42.5C650 46.3 700 51.7 750 53.2C800 54.7 850 52.3 875 51.2L900 50L900 151L875 151C850 151 800 151 750 151C700 151 650 151 600 151C550 151 500 151 450 151C400 151 350 151 300 151C250 151 200 151 150 151C100 151 50 151 25 151L0 151Z" fill="#e23662"></path><path d="M0 41L25 42.2C50 43.3 100 45.7 150 49.2C200 52.7 250 57.3 300 55.5C350 53.7 400 45.3 450 43.7C500 42 550 47 600 46.8C650 46.7 700 41.3 750 42C800 42.7 850 49.3 875 52.7L900 56L900 151L875 151C850 151 800 151 750 151C700 151 650 151 600 151C550 151 500 151 450 151C400 151 350 151 300 151C250 151 200 151 150 151C100 151 50 151 25 151L0 151Z" fill="#cc3569"></path><path d="M0 57L25 55C50 53 100 49 150 46.5C200 44 250 43 300 47.7C350 52.3 400 62.7 450 63C500 63.3 550 53.7 600 54C650 54.3 700 64.7 750 64.5C800 64.3 850 53.7 875 48.3L900 43L900 151L875 151C850 151 800 151 750 151C700 151 650 151 600 151C550 151 500 151 450 151C400 151 350 151 300 151C250 151 200 151 150 151C100 151 50 151 25 151L0 151Z" fill="#b5366d"></path><path d="M0 84L25 82.7C50 81.3 100 78.7 150 72.8C200 67 250 58 300 53C350 48 400 47 450 50C500 53 550 60 600 64C650 68 700 69 750 66.3C800 63.7 850 57.3 875 54.2L900 51L900 151L875 151C850 151 800 151 750 151C700 151 650 151 600 151C550 151 500 151 450 151C400 151 350 151 300 151C250 151 200 151 150 151C100 151 50 151 25 151L0 151Z" fill="#9e376e"></path><path d="M0 76L25 75C50 74 100 72 150 70.7C200 69.3 250 68.7 300 69.5C350 70.3 400 72.7 450 72C500 71.3 550 67.7 600 70.2C650 72.7 700 81.3 750 82.5C800 83.7 850 77.3 875 74.2L900 71L900 151L875 151C850 151 800 151 750 151C700 151 650 151 600 151C550 151 500 151 450 151C400 151 350 151 300 151C250 151 200 151 150 151C100 151 50 151 25 151L0 151Z" fill="#86386c"></path><path d="M0 82L25 80.3C50 78.7 100 75.3 150 73.2C200 71 250 70 300 70.8C350 71.7 400 74.3 450 77.5C500 80.7 550 84.3 600 88.5C650 92.7 700 97.3 750 95.3C800 93.3 850 84.7 875 80.3L900 76L900 151L875 151C850 151 800 151 750 151C700 151 650 151 600 151C550 151 500 151 450 151C400 151 350 151 300 151C250 151 200 151 150 151C100 151 50 151 25 151L0 151Z" fill="#6f3866"></path><path d="M0 82L25 82.8C50 83.7 100 85.3 150 86.3C200 87.3 250 87.7 300 91.3C350 95 400 102 450 102C500 102 550 95 600 93.5C650 92 700 96 750 94.8C800 93.7 850 87.3 875 84.2L900 81L900 151L875 151C850 151 800 151 750 151C700 151 650 151 600 151C550 151 500 151 450 151C400 151 350 151 300 151C250 151 200 151 150 151C100 151 50 151 25 151L0 151Z" fill="#59355c"></path><path d="M0 121L25 118.8C50 116.7 100 112.3 150 112.2C200 112 250 116 300 116.3C350 116.7 400 113.3 450 108.7C500 104 550 98 600 97.8C650 97.7 700 103.3 750 105.8C800 108.3 850 107.7 875 107.3L900 107L900 151L875 151C850 151 800 151 750 151C700 151 650 151 600 151C550 151 500 151 450 151C400 151 350 151 300 151C250 151 200 151 150 151C100 151 50 151 25 151L0 151Z" fill="#463250"></path><path d="M0 107L25 110.8C50 114.7 100 122.3 150 122.2C200 122 250 114 300 111.5C350 109 400 112 450 113.3C500 114.7 550 114.3 600 116.7C650 119 700 124 750 123.8C800 123.7 850 118.3 875 115.7L900 113L900 151L875 151C850 151 800 151 750 151C700 151 650 151 600 151C550 151 500 151 450 151C400 151 350 151 300 151C250 151 200 151 150 151C100 151 50 151 25 151L0 151Z" fill="#362d42"></path><path d="M0 128L25 126C50 124 100 120 150 119.8C200 119.7 250 123.3 300 124.3C350 125.3 400 123.7 450 124.8C500 126 550 130 600 132.8C650 135.7 700 137.3 750 135.8C800 134.3 850 129.7 875 127.3L900 125L900 151L875 151C850 151 800 151 750 151C700 151 650 151 600 151C550 151 500 151 450 151C400 151 350 151 300 151C250 151 200 151 150 151C100 151 50 151 25 151L0 151Z" fill="#292732"></path><path d="M0 129L25 131.7C50 134.3 100 139.7 150 140.7C200 141.7 250 138.3 300 135.7C350 133 400 131 450 133C500 135 550 141 600 143.5C650 146 700 145 750 141.7C800 138.3 850 132.7 875 129.8L900 127L900 151L875 151C850 151 800 151 750 151C700 151 650 151 600 151C550 151 500 151 450 151C400 151 350 151 300 151C250 151 200 151 150 151C100 151 50 151 25 151L0 151Z" fill="#202022"></path></svg>